<?xml version='1.0' encoding='utf-8'?>
<svg xmlns:xlink="http://www.w3.org/1999/xlink" xmlns="http://www.w3.org/2000/svg" id="svg1396" version="1.1" viewBox="0 0 507.99999 285.75001" height="1080" width="1920"> <defs id="defs1390"> <linearGradient y2="138.25" x2="1058.3334" y1="402.83334" x1="555.625" gradientTransform="translate(1307.3807,5612.7916)" gradientUnits="userSpaceOnUse" id="linearGradient9287" xlink:href="#linearGradient964"/> <linearGradient id="linearGradient964"> <stop id="stop960" offset="0" style="stop-color:#f2f2f2;stop-opacity:1;"/> <stop id="stop962" offset="1" style="stop-color:#f2f2f2;stop-opacity:1"/> </linearGradient> </defs> <metadata id="metadata1393"> </metadata> <g transform="translate(0,-11.249992)" id="layer1"> <g id="g9345" transform="translate(-1889.464,-5691.1079)"> <rect style="color:#000000;clip-rule:nonzero;display:inline;overflow:visible;visibility:visible;opacity:1;isolation:auto;mix-blend-mode:normal;color-interpolation:sRGB;color-interpolation-filters:linearRGB;solid-color:#000000;solid-opacity:1;fill:url(#linearGradient9287);fill-opacity:1;fill-rule:nonzero;stroke:none;stroke-width:0.079375;stroke-linecap:round;stroke-linejoin:round;stroke-miterlimit:4;stroke-dasharray:none;stroke-dashoffset:0;stroke-opacity:1;color-rendering:auto;image-rendering:auto;shape-rendering:auto;text-rendering:auto;enable-background:accumulate" id="rect9285" width="508" height="285.75" x="1889.464" y="5702.3579"/> <g id="g9335"> <path id="path9299" d="m 2041.9454,5774.0409 c -6.2403,0 -11.3972,5.1579 -11.3972,11.3982 v 101.0674 c 0,6.2403 5.1569,11.3971 11.3972,11.3971 h 185.4833 c 6.2403,0 11.3982,-5.1568 11.3982,-11.3971 v -101.0674 c 0,-6.2403 -5.1579,-11.3982 -11.3982,-11.3982 z m 0,8.5481 h 185.4833 c 1.6525,0 2.8501,1.1976 2.8501,2.8501 v 101.0674 c 0,1.6525 -1.1976,2.849 -2.8501,2.849 h -185.4833 c -1.6525,0 -2.849,-1.1965 -2.849,-2.849 v -101.0674 c 0,-1.6525 1.1965,-2.8501 2.849,-2.8501 z" style="color:#000000;font-style:normal;font-variant:normal;font-weight:normal;font-stretch:normal;font-size:medium;line-height:normal;font-family:sans-serif;font-variant-ligatures:normal;font-variant-position:normal;font-variant-caps:normal;font-variant-numeric:normal;font-variant-alternates:normal;font-feature-settings:normal;text-indent:0;text-align:start;text-decoration:none;text-decoration-line:none;text-decoration-style:solid;text-decoration-color:#000000;letter-spacing:normal;word-spacing:normal;text-transform:none;writing-mode:lr-tb;direction:ltr;text-orientation:mixed;dominant-baseline:auto;baseline-shift:baseline;text-anchor:start;white-space:normal;shape-padding:0;clip-rule:nonzero;display:inline;overflow:visible;visibility:visible;opacity:1;isolation:auto;mix-blend-mode:normal;color-interpolation:sRGB;color-interpolation-filters:linearRGB;solid-color:#000000;solid-opacity:1;vector-effect:none;fill:#5599ff;fill-opacity:1;fill-rule:nonzero;stroke:none;stroke-width:8.5481329;stroke-linecap:round;stroke-linejoin:round;stroke-miterlimit:4;stroke-dasharray:none;stroke-dashoffset:0;stroke-opacity:1;color-rendering:auto;image-rendering:auto;shape-rendering:auto;text-rendering:auto;enable-background:accumulate"/> <path id="path9301" d="m 2035.0961,5799.9293 199.4564,-0.1582 v 29.833 l -199.7304,-1.3392 z" style="fill:#5599ff;fill-opacity:1;fill-rule:evenodd;stroke:none;stroke-width:0.14246887px;stroke-linecap:butt;stroke-linejoin:miter;stroke-opacity:1"/> <path id="path9303" d="m 2241.5738,5792.5621 v 8.5482 h 3.4078 c 1.6525,0 2.85,1.1973 2.85,2.8498 v 101.0675 c 0,1.6525 -1.1975,2.8491 -2.85,2.8491 h -185.4833 c -1.6525,0 -2.8491,-1.1966 -2.8491,-2.8491 v -2.8496 h -8.5481 v 2.8496 c 0,6.2403 5.1569,11.3973 11.3972,11.3973 h 185.4833 c 6.2404,0 11.3981,-5.157 11.3981,-11.3973 v -101.0675 c 0,-6.2403 -5.1577,-11.398 -11.3981,-11.398 z" style="color:#000000;font-style:normal;font-variant:normal;font-weight:normal;font-stretch:normal;font-size:medium;line-height:normal;font-family:sans-serif;font-variant-ligatures:normal;font-variant-position:normal;font-variant-caps:normal;font-variant-numeric:normal;font-variant-alternates:normal;font-feature-settings:normal;text-indent:0;text-align:start;text-decoration:none;text-decoration-line:none;text-decoration-style:solid;text-decoration-color:#000000;letter-spacing:normal;word-spacing:normal;text-transform:none;writing-mode:lr-tb;direction:ltr;text-orientation:mixed;dominant-baseline:auto;baseline-shift:baseline;text-anchor:start;white-space:normal;shape-padding:0;clip-rule:nonzero;display:inline;overflow:visible;visibility:visible;opacity:1;isolation:auto;mix-blend-mode:normal;color-interpolation:sRGB;color-interpolation-filters:linearRGB;solid-color:#000000;solid-opacity:1;vector-effect:none;fill:#5599ff;fill-opacity:1;fill-rule:nonzero;stroke:none;stroke-width:8.54813194;stroke-linecap:round;stroke-linejoin:round;stroke-miterlimit:4;stroke-dasharray:none;stroke-dashoffset:0;stroke-opacity:1;color-rendering:auto;image-rendering:auto;shape-rendering:auto;text-rendering:auto;enable-background:accumulate"/> <path id="path9305" d="m 2049.343,5849.5497 h 99.7282" style="fill:none;fill-rule:evenodd;stroke:#5599ff;stroke-width:5.69875479;stroke-linecap:round;stroke-linejoin:miter;stroke-miterlimit:4;stroke-dasharray:none;stroke-opacity:1"/> <path style="fill:none;fill-rule:evenodd;stroke:#5599ff;stroke-width:5.69875479;stroke-linecap:round;stroke-linejoin:miter;stroke-miterlimit:4;stroke-dasharray:none;stroke-opacity:1" d="m 2049.343,5863.7967 h 71.8462" id="path9307"/> </g> <path style="opacity:0.1;fill:#000000;fill-rule:evenodd;stroke:none;stroke-width:0.99999994px;stroke-linecap:butt;stroke-linejoin:miter;stroke-opacity:1" d="m 8445.3262,21832.547 h -0.012 c 9.9498,7.928 16.3925,20.12 16.3925,33.672 v 381.986 c 0,23.585 -19.4927,43.076 -43.0781,43.076 h -701.0391 c -10.6979,0 -20.5467,-4.018 -28.123,-10.601 h -0.01 l 351.5254,351.526 h 1020.2988 v -444.049 z" transform="scale(0.26458333)" id="path9328"/> </g> </g> </svg>