<?xml version="1.0" encoding="iso-8859-1"?>
<!-- Generator: Adobe Illustrator 25.0.1, SVG Export Plug-In . SVG Version: 6.00 Build 0)  -->
<svg version="1.1" id="Capa_1" xmlns="http://www.w3.org/2000/svg" xmlns:xlink="http://www.w3.org/1999/xlink" x="0px" y="0px"
	 viewBox="0 0 130 63.995" style="enable-background:new 0 0 130 63.995;" xml:space="preserve">
<g id="Group_6" transform="translate(-52.671 -39.759)">
	<g id="Group_3" transform="translate(108.639 39.759)">
		<path id="Path_1" style="fill:#161615;" d="M3.69,8.646l13.058-5.42L30.84,2.118l5.951,1.431l0.341,4.33l-12.428,4.592
			l-11.565-0.342L4.57,10.996L3.69,8.646z"/>
		<path id="Path_2" style="fill:#B10023;" d="M48.098,6.159c0.012-0.375,0.051-1.507,0.07-2.1c-5.688-1.783-10.9-3.744-20.333-4.036
			C14.916-0.377,6.748,4.078,0.001,9.432c0.941,1,3.091,3.287,3.3,3.5c1.857-1.011,4.26-0.609,6.88-0.151
			c13.987,1.543,18.91-0.537,23.348-1.713c2.136-0.713,4.346-1.181,6.588-1.395c2.457-0.156,4.92,0.176,7.248,0.978
			c3.706,1.536,7.164,3.612,10.262,6.16c3.064,2.357,5.888,5.012,8.429,7.925l2.573-4.456C68.629,20.28,63.135,13.171,48.098,6.159z
			 M34.428,5.541c-1.03,1.021-2.725,3.059-3.937,3.54c-1.395,0.556-3.367,0.547-5.338,0.753c-3.321,0.355-6.66,0.526-10,0.511
			c-1.5,0.021-6.012,0.1-6.723-0.345c-0.103-0.423-0.1-0.865,0.01-1.286c0.546-0.365,1.193-0.547,1.849-0.522
			c4.388-0.406,8.877-0.805,13.182-1.288c1.914-0.219,3.672-0.12,5.14-0.628c1.3-0.448,2.851-2.779,4.007-2.743l2.774,0.086
			C35.554,3.87,34.778,5.186,34.428,5.541z"/>
	</g>
	<g id="Group_4" transform="translate(52.671 50.474)">
		<path id="Path_3" style="fill:#161615;" d="M6.059,25.345c0.432,2.906,3,4.973,7.109,4.9c2.148-0.038,4.948-0.9,6.264-2.305
			l3.777,3.614c-2.43,2.624-6.464,3.927-10.047,3.99c-8.124,0.132-13.035-4.8-13.16-12.346c-0.119-7.165,4.673-12.4,12.314-12.527
			c7.88-0.132,12.865,4.654,12.127,14.362L6.059,25.345z M18.78,20.309c-0.438-3.05-2.85-4.535-6.189-4.479
			c-3.157,0.05-5.712,1.622-6.52,4.692L18.78,20.309z"/>
		<path id="Path_4" style="fill:#161615;" d="M53.941,8.978c-2.364-2.082-5.412-3.221-8.562-3.2
			c-7.159,0.119-11.412,5.637-11.3,12.515c0.088,5.493,3.382,11.118,11.688,10.98c2.761,0.033,5.436-0.965,7.5-2.8l-0.094-5.919
			l-8.55,0.144l-0.094-5.637l14.331-0.238l0.232,14.087c-3.212,4.009-8.093,6.311-13.229,6.239
			c-12.559,0.207-17.807-7.967-17.952-16.755c-0.157-9.408,5.575-18.2,17.369-18.39c4.649-0.074,9.14,1.687,12.5,4.9L53.941,8.978z"
			/>
		<path id="Path_5" style="fill:#161615;" d="M82.175,10.232l5.593-0.094l0.395,23.545l-5.493,0.088l-0.344-3.432
			c-1.3,2.793-4.948,4.19-7.573,4.278c-6.972,0.169-12.2-4.04-12.333-12.3c-0.138-8.124,5.186-12.465,12.064-12.533
			c3.151-0.05,6.182,1.384,7.56,3.7L82.175,10.232z M68.238,22.214c-0.17,3.724,2.711,6.881,6.435,7.051
			c0.22,0.01,0.44,0.009,0.66-0.002c9.17-0.157,8.932-14.432-0.238-14.275c-3.699-0.098-6.777,2.822-6.875,6.521
			c-0.006,0.235,0,0.471,0.019,0.705H68.238z"/>
		<path id="Path_6" style="fill:#161615;" d="M108.163,16.057c-1.601-1.438-3.717-2.164-5.863-2.011
			c-2.769,0.05-4.278,0.933-4.253,2.418c0.025,1.528,1.422,2.361,4.435,2.506c4.441,0.207,10.1,1.115,10.2,7.372
			c0.069,4.159-3.263,7.8-10,7.911c-3.727,0.063-7.466-0.495-10.961-4.021l2.8-4.2c1.7,1.835,5.543,3.157,8.174,3.157
			c2.2,0.013,4.228-1.165,4.2-2.887c-0.025-1.622-1.372-2.274-4.717-2.405c-4.447-0.257-9.778-1.8-9.865-7.147
			c-0.088-5.443,5.518-7.447,9.815-7.516c3.677-0.063,6.458,0.614,9.22,2.95L108.163,16.057z"/>
	</g>
	<g id="Group_5" transform="translate(81.934 84.93)">
		<path id="Path_7" style="fill:#449B23;" d="M11.916,16.767c-1.305,1.361-3.124,2.108-5.009,2.057C3.137,18.824,0,16.557,0,11.943
			s3.137-6.881,6.907-6.881c1.768-0.06,3.476,0.641,4.692,1.925l-2.03,2.135c-0.715-0.651-1.643-1.017-2.61-1.029
			C4.94,8.042,3.263,9.637,3.212,11.656c-0.002,0.095-0.001,0.191,0.004,0.286c-0.145,1.95,1.318,3.649,3.269,3.794
			c0.141,0.01,0.282,0.012,0.422,0.006c1.056,0.04,2.083-0.35,2.847-1.081L11.916,16.767z"/>
		<path id="Path_8" style="fill:#449B23;" d="M16.608,13.077c0.211,1.608,1.609,2.768,3.876,2.768c1.267,0.019,2.5-0.411,3.48-1.213
			l2.056,2.03c-1.52,1.4-3.523,2.156-5.589,2.109c-4.481,0-7.144-2.768-7.144-6.933c-0.173-3.586,2.594-6.633,6.179-6.806
			c0.243-0.012,0.485-0.01,0.728,0.006c4.35,0,7.065,2.689,6.564,8.041L16.608,13.077z M23.674,10.414
			c-0.211-1.687-1.529-2.531-3.374-2.531c-1.66-0.129-3.182,0.929-3.638,2.531H23.674z"/>
		<path id="Path_9" style="fill:#449B23;" d="M38.806,18.428v-6.8c0-1.977-1.08-3.48-3.137-3.48c-1.888,0.05-3.378,1.622-3.328,3.51
			c0.001,0.043,0.003,0.086,0.006,0.128v6.643h-3.189V5.404h2.873l0.211,1.767c1.089-1.217,2.637-1.924,4.27-1.951
			c3.058,0,5.51,2.293,5.51,6.38v6.828L38.806,18.428z"/>
		<path id="Path_10" style="fill:#449B23;" d="M48.772,1.767v3.691h3.585v2.768h-3.611v5.615c-0.13,0.882,0.48,1.702,1.362,1.831
			c0.107,0.016,0.216,0.021,0.325,0.015c0.543-0.017,1.076-0.153,1.56-0.4l0.9,2.741c-0.844,0.353-1.748,0.541-2.663,0.554
			c-2.821,0.106-4.666-1.5-4.666-4.746V8.221h-2.425V5.453h2.425V2.105L48.772,1.767z"/>
		<path id="Path_11" style="fill:#449B23;" d="M57.735,5.431l0.237,1.5c0.762-1.272,2.189-1.991,3.664-1.845
			c1.232-0.02,2.426,0.422,3.348,1.239l-1.45,2.795c-0.63-0.579-1.465-0.883-2.32-0.844c-1.651-0.143-3.105,1.079-3.248,2.73
			c-0.016,0.19-0.015,0.381,0.005,0.57v6.855h-3.216v-13L57.735,5.431z"/>
		<path id="Path_12" style="fill:#449B23;" d="M76.506,5.431h3.085v13h-3.032l-0.158-1.9c-0.738,1.529-2.768,2.268-4.218,2.294
			c-3.849,0.026-6.7-2.346-6.7-6.907c0-4.482,2.98-6.828,6.776-6.8c1.652-0.061,3.218,0.736,4.139,2.109L76.506,5.431z
			 M68.706,11.916c-0.129,2.052,1.43,3.82,3.482,3.949c0.122,0.008,0.245,0.009,0.368,0.005c5.062,0,5.062-7.883,0-7.883
			c-2.042-0.089-3.769,1.494-3.858,3.535c-0.006,0.131-0.004,0.263,0.004,0.394H68.706z"/>
		<path id="Path_13" style="fill:#449B23;" d="M85.495,0v18.428h-3.19V0H85.495z"/>
	</g>
	<path id="Path_14" style="fill:#449B23;" d="M174.279,103.743h-4.223v-24h4.223V103.743z M170.828,102.974h2.679V80.512h-2.679
		V102.974z"/>
	<path id="Path_15" style="fill:#449B23;" d="M180.895,103.737h-4.209V76.106h4.209V103.737z M177.445,102.979h2.692V76.864h-2.692
		V102.979z"/>
	<path id="Path_16" style="fill:#449B23;" d="M174.439,71.928l4.115-7.128l4.115,7.128H174.439z"/>
	<rect id="Rectangle_10" x="163.118" y="102.985" style="fill:#449B23;" width="19.553" height="0.746"/>
</g>
</svg>
